<svg width="512" height="512" viewBox="0 0 512 512" fill="none" xmlns="http://www.w3.org/2000/svg">
  <rect width="512" height="512" rx="112" fill="#2478FF"/>
  <path d="M116 176C116 131.817 151.817 96 196 96H338C382.183 96 418 131.817 418 176V328C418 372.183 382.183 408 338 408H196C151.817 408 116 372.183 116 328V176Z" fill="#FFFFFF"/>
  <path d="M116 176C116 131.817 151.817 96 196 96H338C382.183 96 418 131.817 418 176V202H116V176Z" fill="#EAF2FF"/>
  <rect x="176" y="72" width="34" height="78" rx="17" fill="#135BD8"/>
  <rect x="324" y="72" width="34" height="78" rx="17" fill="#135BD8"/>
  <rect x="171" y="224" width="50" height="50" rx="14" fill="#EAF2FF"/>
  <rect x="243" y="224" width="50" height="50" rx="14" fill="#EAF2FF"/>
  <rect x="315" y="224" width="50" height="50" rx="14" fill="#EAF2FF"/>
  <rect x="171" y="294" width="50" height="50" rx="14" fill="#EAF2FF"/>
  <rect x="243" y="294" width="50" height="50" rx="14" fill="#00A878"/>
  <rect x="315" y="294" width="50" height="50" rx="14" fill="#FFF5DF"/>
  <circle cx="382" cy="348" r="82" fill="#00A878"/>
  <circle cx="382" cy="348" r="58" fill="#E7F8F1"/>
  <path d="M331 321H352L362 365L374 321H391L402 365L412 321H433L414 392H396L382 346L368 392H350L331 321Z" fill="#00A878"/>
  <path d="M338 344H426" stroke="#00A878" stroke-width="15" stroke-linecap="round"/>
  <path d="M344 368H420" stroke="#00A878" stroke-width="15" stroke-linecap="round"/>
</svg>
